<svg xmlns="http://www.w3.org/2000/svg" enable-background="new 0 0 50 50" viewBox="0 0 50 50" id="blog-page">
  <path fill="#444445" d="M1,3v4h48V3c0-1.1046-0.8954-2-2-2H3C1.8954,1,1,1.8955,1,3z"></path>
  <rect width="48" height="4" x="1" y="7" fill="#59B1E3"></rect>
  <path fill="#EFEFED" d="M1,11v36c0,1.1046,0.8954,2,2,2h44c1.1046,0,2-0.8954,2-2V11H1z"></path>
  <path fill="#696967" d="M21.0429,4L21.0429,4c0,0.5523,0.4477,1,1,1h19.9312c0.5523,0,1-0.4477,1-1v0c0-0.5523-0.4477-1-1-1
			H22.0429C21.4906,3,21.0429,3.4477,21.0429,4z"></path>
  <rect width="20.661" height="10" x="3.339" y="13" fill="#E9715F"></rect>
  <rect width="20.661" height="10" x="26" y="13" fill="#9A7EAA"></rect>
  <rect width="20.661" height="22" x="3.339" y="25" fill="#FFF"></rect>
  <rect width="20.661" height="22" x="26" y="25" fill="#FFF"></rect>
  <rect width="9.535" height="1" x="12.301" y="27.5" fill="#C7C7C7"></rect>
  <rect width="3.544" height="1" x="5.835" y="27.5" fill="#C7C7C7"></rect>
  <rect width="4.779" height="1" x="17.056" y="31.5" fill="#C7C7C7"></rect>
  <rect width="8.873" height="1" x="5.835" y="31.5" fill="#C7C7C7"></rect>
  <rect width="9.213" height="1" x="12.622" y="35.5" fill="#C7C7C7"></rect>
  <rect width="4.753" height="1" x="5.835" y="35.5" fill="#C7C7C7"></rect>
  <rect width="4.148" height="1" x="17.687" y="39.5" fill="#C7C7C7"></rect>
  <rect width="9.247" height="1" x="5.835" y="39.5" fill="#C7C7C7"></rect>
  <rect width="8.521" height="1" x="13.314" y="43.5" fill="#C7C7C7"></rect>
  <rect width="5.125" height="1" x="5.835" y="43.5" fill="#C7C7C7"></rect>
  <g>
    <rect width="9.535" height="1" x="34.796" y="27.5" fill="#C7C7C7"></rect>
    <rect width="3.544" height="1" x="28.331" y="27.5" fill="#C7C7C7"></rect>
    <rect width="4.779" height="1" x="39.551" y="31.5" fill="#C7C7C7"></rect>
    <rect width="8.873" height="1" x="28.331" y="31.5" fill="#C7C7C7"></rect>
    <rect width="9.213" height="1" x="35.117" y="35.5" fill="#C7C7C7"></rect>
    <rect width="4.753" height="1" x="28.331" y="35.5" fill="#C7C7C7"></rect>
    <rect width="4.148" height="1" x="40.182" y="39.5" fill="#C7C7C7"></rect>
    <rect width="9.247" height="1" x="28.331" y="39.5" fill="#C7C7C7"></rect>
    <rect width="8.521" height="1" x="35.809" y="43.5" fill="#C7C7C7"></rect>
    <rect width="5.125" height="1" x="28.331" y="43.5" fill="#C7C7C7"></rect>
  </g>
</svg>
